<?xml version="1.0" encoding="iso-8859-1"?>
<!-- Generator: Adobe Illustrator 18.0.0, SVG Export Plug-In . SVG Version: 6.00 Build 0)  -->
<!DOCTYPE svg PUBLIC "-//W3C//DTD SVG 1.1//EN" "http://www.w3.org/Graphics/SVG/1.1/DTD/svg11.dtd">
<svg version="1.1" id="Capa_1" xmlns="http://www.w3.org/2000/svg" xmlns:xlink="http://www.w3.org/1999/xlink" x="0px" y="0px"
	 viewBox="0 0 57.091 57.091" style="enable-background:new 0 0 57.091 57.091;" xml:space="preserve">
<g>
	<path style="fill:#EFC514;" d="M54.589,18.43c0.021-0.015,2.644-0.796,2.481-2.696c-0.072-0.835-0.597-1.935-1.495-1.806h0
		c-0.742,0.106-1.609-0.761-1.503-1.503l0.103-0.719c0.106-0.742-0.761-1.609-1.503-1.503l-0.718,0.103
		c-0.742,0.106-1.609-0.761-1.503-1.503l0.103-0.718c0.106-0.742-0.761-1.609-1.503-1.503l-0.719,0.103
		c-0.742,0.106-1.609-0.761-1.503-1.503l0.103-0.718c0.106-0.742-0.761-1.609-1.503-1.503L44.71,3.062
		c-0.742,0.106-1.609-0.761-1.503-1.503l0.018-0.126c0.122-0.855-0.924-1.353-1.72-1.424c-2.137-0.189-2.799,2.506-2.8,2.536
		c0,0-3.453,5.78-4.347,15.321l5.232,5.232C39.59,23.099,48.174,23.039,54.589,18.43z"/>
	<path style="fill:#EFC514;" d="M2.502,38.661c-0.021,0.015-2.644,0.796-2.481,2.696c0.072,0.835,0.597,1.935,1.495,1.806l0,0
		c0.742-0.106,1.609,0.761,1.503,1.503l-0.103,0.719c-0.106,0.742,0.761,1.609,1.503,1.503l0.718-0.103
		c0.742-0.106,1.609,0.761,1.503,1.503l-0.103,0.718c-0.106,0.742,0.761,1.609,1.503,1.503l0.719-0.103
		c0.742-0.106,1.609,0.761,1.503,1.503l-0.103,0.718c-0.106,0.742,0.761,1.609,1.503,1.503l0.719-0.103
		c0.742-0.106,1.609,0.761,1.503,1.503l-0.018,0.126c-0.122,0.855,0.924,1.353,1.72,1.424c2.137,0.189,2.799-2.506,2.8-2.536
		c0,0,3.453-5.78,4.347-15.321l-5.232-5.232C17.501,33.992,8.917,34.052,2.502,38.661z"/>
	<path style="fill:#F9D70B;" d="M42.138,31.304L31.304,42.138c-1.556,1.556-4.101,1.556-5.657,0L14.813,31.304
		c-1.556-1.556-1.556-4.101,0-5.657l10.834-10.834c1.556-1.556,4.101-1.556,5.657,0l10.834,10.834
		C43.694,27.203,43.694,29.749,42.138,31.304z"/>
	<polygon style="fill:#ED3F32;" points="39.47,33.973 32.141,41.302 18.093,22.368 25.422,15.039 	"/>
	<path style="fill:#A46F3E;" d="M38.488,21.088c-0.228,0-0.457-0.077-0.645-0.236c-0.422-0.356-0.475-0.987-0.118-1.409
		c1.847-2.185,3.448-2.24,5.303-2.304c0.597-0.021,1.215-0.042,1.926-0.131c0.54-0.062,1.048,0.32,1.116,0.868
		s-0.32,1.048-0.868,1.116c-0.8,0.101-1.493,0.124-2.105,0.146c-1.711,0.059-2.57,0.088-3.844,1.596
		C39.055,20.968,38.773,21.088,38.488,21.088z"/>
	<path style="fill:#A46F3E;" d="M37.39,20.119c-0.35,0-0.69-0.185-0.874-0.512c-0.27-0.481-0.098-1.091,0.384-1.361
		c2.837-1.588,4.636-5.509,4.185-9.121c-0.068-0.548,0.32-1.048,0.868-1.116c0.54-0.063,1.048,0.319,1.116,0.868
		c0.556,4.445-1.628,9.119-5.192,11.115C37.723,20.078,37.556,20.119,37.39,20.119z"/>
	<path style="fill:#A46F3E;" d="M12.076,40.088c-0.497,0-0.928-0.37-0.991-0.876c-0.068-0.548,0.32-1.048,0.868-1.116
		c0.8-0.1,1.493-0.124,2.104-0.146c1.711-0.059,2.571-0.089,3.845-1.596c0.356-0.422,0.988-0.476,1.409-0.118
		c0.422,0.356,0.475,0.987,0.118,1.409c-1.847,2.185-3.449,2.239-5.303,2.304c-0.597,0.021-1.214,0.042-1.925,0.131
		C12.16,40.085,12.118,40.088,12.076,40.088z"/>
	<path style="fill:#A46F3E;" d="M15.076,49.088c-0.497,0-0.928-0.37-0.991-0.876c-0.556-4.446,1.628-9.12,5.192-11.115
		c0.482-0.269,1.092-0.097,1.361,0.385c0.27,0.482,0.098,1.091-0.384,1.361c-2.837,1.587-4.636,5.509-4.185,9.121
		c0.068,0.548-0.32,1.048-0.868,1.116C15.16,49.085,15.118,49.088,15.076,49.088z"/>
</g>
<g>
</g>
<g>
</g>
<g>
</g>
<g>
</g>
<g>
</g>
<g>
</g>
<g>
</g>
<g>
</g>
<g>
</g>
<g>
</g>
<g>
</g>
<g>
</g>
<g>
</g>
<g>
</g>
<g>
</g>
</svg>
